<svg width="100" height="100" viewBox="0 0 100 100" fill="none" xmlns="http://www.w3.org/2000/svg">
<path d="M49.9688 10.9531C51.6947 10.9531 53.0938 12.3522 53.0938 14.0781V27.8906C53.0938 29.6166 51.6947 31.0156 49.9688 31.0156C48.2428 31.0156 46.8438 29.6166 46.8438 27.8906V14.0781C46.8438 12.3522 48.2428 10.9531 49.9688 10.9531Z" fill="#008463"/>
<path d="M62.4062 26.5469H37.5C20.2187 26.5469 6.25 40.5469 6.25 57.7969C6.25 75.0782 20.25 89.0469 37.5 89.0469H62.375C79.6562 89.0469 93.625 75.0469 93.625 57.7969C93.6562 40.5469 79.6562 26.5469 62.4062 26.5469Z" fill="#F8312F"/>
<path d="M48.1251 34.8907H30.125C20.3438 34.8907 12.4375 26.9845 12.4375 17.2032H30.4375C40.2188 17.2032 48.1251 25.1095 48.1251 34.8907Z" fill="#00D26A"/>
<path d="M87.4062 17.2032H69.4062C59.625 17.2032 51.7188 25.1095 51.7188 34.8907H69.7188C79.5 34.8907 87.4062 26.9845 87.4062 17.2032Z" fill="#00D26A"/>
<path d="M17.9688 42.4221H36C41.6703 42.4221 46.7275 39.748 49.9609 35.5862C53.1947 39.748 58.2491 42.4221 63.9375 42.4221H81.9375C81.9375 32.6721 74 24.7346 64.25 24.7346H35.6562C25.875 24.7346 17.9688 32.6408 17.9688 42.4221Z" fill="#00F397"/>
</svg>
