<svg width="100" height="100" viewBox="0 0 100 100" fill="none" xmlns="http://www.w3.org/2000/svg">
<path d="M49.9521 33.0082C50.7422 33.0082 51.3827 33.6488 51.3827 34.4389V40.7622C51.3827 41.5523 50.7422 42.1928 49.9521 42.1928C49.162 42.1928 48.5215 41.5523 48.5215 40.7622V34.4389C48.5215 33.6488 49.162 33.0082 49.9521 33.0082Z" fill="#008463"/>
<path d="M55.6447 40.147H44.2427C36.3314 40.147 29.9365 46.5562 29.9365 54.4532C29.9365 62.3645 36.3457 68.7593 44.2427 68.7593H55.6304C63.5417 68.7593 69.9365 62.3502 69.9365 54.4532C69.9508 46.5562 63.5417 40.147 55.6447 40.147Z" fill="#D3F82F"/>
<path d="M49.1077 43.9669H40.8673C36.3895 43.9669 32.77 40.3475 32.77 35.8696H41.0104C45.4882 35.8696 49.1077 39.4891 49.1077 43.9669Z" fill="#00D26A"/>
<path d="M67.0896 35.8696H58.8492C54.3714 35.8696 50.752 39.4891 50.752 43.9669H58.9923C63.4701 43.9669 67.0896 40.3475 67.0896 35.8696Z" fill="#00D26A"/>
<path d="M35.3018 47.4147H43.5564C46.1523 47.4147 48.4674 46.1905 49.9477 44.2853C51.4281 46.1905 53.7419 47.4147 56.3461 47.4147H64.5864C64.5864 42.9512 60.9527 39.3174 56.4892 39.3174H43.399C38.9212 39.3174 35.3018 42.9369 35.3018 47.4147Z" fill="#00F397"/>
</svg>
