<svg width="100" height="100" viewBox="0 0 100 100" fill="none" xmlns="http://www.w3.org/2000/svg">
<g clip-path="url(#clip0_96_551)">
<path d="M49.987 29.9915C50.9747 29.9915 51.7753 30.7921 51.7753 31.7797V39.6839C51.7753 40.6715 50.9747 41.4721 49.987 41.4721C48.9993 41.4721 48.1987 40.6715 48.1987 39.6839V31.7797C48.1987 30.7921 48.9993 29.9915 49.987 29.9915Z" fill="#008463"/>
<path d="M57.1039 38.9149H42.8514C32.9623 38.9149 24.9688 46.9264 24.9688 56.7976C24.9688 66.6867 32.9802 74.6803 42.8514 74.6803H57.086C66.9752 74.6803 74.9687 66.6689 74.9687 56.7976C74.9866 46.9264 66.9752 38.9149 57.1039 38.9149Z" fill="#F8E12F"/>
<path d="M48.9318 43.6896H38.6314C33.0341 43.6896 28.5098 39.1653 28.5098 33.5681H38.8102C44.4075 33.5681 48.9318 38.0924 48.9318 43.6896Z" fill="#00D26A"/>
<path d="M71.4103 33.5681H61.1099C55.5126 33.5681 50.9883 38.0924 50.9883 43.6896H61.2887C66.886 43.6896 71.4103 39.1653 71.4103 33.5681Z" fill="#00D26A"/>
<path d="M31.6748 47.9994H41.9931C45.2379 47.9994 48.1319 46.4692 49.9822 44.0876C51.8327 46.4692 54.725 47.9994 57.9802 47.9994H68.2806C68.2806 42.42 63.7384 37.8778 58.1591 37.8778H41.7964C36.1991 37.8778 31.6748 42.4021 31.6748 47.9994Z" fill="#00F397"/>
</g>
<defs>
<clipPath id="clip0_96_551">
<rect width="50" height="50" fill="white" transform="translate(25 25)"/>
</clipPath>
</defs>
</svg>
