<svg width="100" height="100" viewBox="0 0 100 100" fill="none" xmlns="http://www.w3.org/2000/svg">
<g clip-path="url(#clip0_96_545)">
<path d="M49.9843 25.9897C51.1695 25.9897 52.1302 26.9505 52.1302 28.1356V37.6206C52.1302 38.8058 51.1695 39.7665 49.9843 39.7665C48.7991 39.7665 47.8384 38.8058 47.8384 37.6206V28.1356C47.8384 26.9505 48.7991 25.9897 49.9843 25.9897Z" fill="#008463"/>
<path d="M58.5246 36.6979H41.4216C29.5547 36.6979 19.9624 46.3116 19.9624 58.1571C19.9624 70.0241 29.5761 79.6163 41.4216 79.6163H58.5031C70.3701 79.6163 79.9624 70.0026 79.9624 58.1571C79.9838 46.3116 70.3701 36.6979 58.5246 36.6979Z" fill="#F8A82F"/>
<path d="M48.7179 42.4276H36.3573C29.6406 42.4276 24.2114 36.9984 24.2114 30.2817H36.5719C43.2887 30.2817 48.7179 35.7109 48.7179 42.4276Z" fill="#00D26A"/>
<path d="M75.692 30.2817H63.3315C56.6147 30.2817 51.1855 35.7109 51.1855 42.4276H63.5461C70.2628 42.4276 75.692 36.9984 75.692 30.2817Z" fill="#00D26A"/>
<path d="M28.0098 47.5994H40.3917C44.2855 47.5994 47.7583 45.7631 49.9786 42.9052C52.1992 45.7631 55.67 47.5994 59.5763 47.5994H71.9368C71.9368 40.9041 66.4861 35.4535 59.7909 35.4535H40.1557C33.4389 35.4535 28.0098 40.8827 28.0098 47.5994Z" fill="#00F397"/>
</g>
<defs>
<clipPath id="clip0_96_545">
<rect width="60" height="60" fill="white" transform="translate(20 20)"/>
</clipPath>
</defs>
</svg>
