<svg width="100" height="100" viewBox="0 0 100 100" fill="none" xmlns="http://www.w3.org/2000/svg">
<path d="M49.9751 20.4999C51.3558 20.4999 52.4751 21.6192 52.4751 22.9999V34.0499C52.4751 35.4306 51.3558 36.5499 49.9751 36.5499C48.5943 36.5499 47.4751 35.4306 47.4751 34.0499V22.9999C47.4751 21.6192 48.5943 20.4999 49.9751 20.4999Z" fill="#008463"/>
<path d="M59.925 32.9749H40C26.175 32.9749 15 44.1749 15 57.9749C15 71.7999 26.2 82.9749 40 82.9749H59.9C73.725 82.9749 84.9 71.7749 84.9 57.9749C84.925 44.1749 73.725 32.9749 59.925 32.9749Z" fill="#F86B2F"/>
<path d="M48.4998 39.65H34.0997C26.2747 39.65 19.9497 33.325 19.9497 25.5H34.3497C42.1748 25.5 48.4998 31.825 48.4998 39.65Z" fill="#00D26A"/>
<path d="M79.925 25.5H65.525C57.7 25.5 51.375 31.825 51.375 39.65H65.775C73.6 39.65 79.925 33.325 79.925 25.5Z" fill="#00D26A"/>
<path d="M24.375 45.6751H38.8C43.3362 45.6751 47.382 43.5358 49.9687 40.2063C52.5557 43.5358 56.5992 45.6751 61.15 45.6751H75.55C75.55 37.8751 69.2 31.5251 61.4 31.5251H38.525C30.7 31.5251 24.375 37.8501 24.375 45.6751Z" fill="#00F397"/>
</svg>
