<svg width="512" height="512" viewBox="0 0 512 512" fill="none" xmlns="http://www.w3.org/2000/svg">
<rect width="512" height="512" rx="100" fill="#FBEBCC"/>
<path d="M169.758 381.79H138.448V365.86H374.099V381.79H342.788V397.17H169.758V381.79Z" fill="#FF342A"/>
<path fill-rule="evenodd" clip-rule="evenodd" d="M169.758 209.309H232.928V193.38H326.858H389.48V209.309H405.409V240.62H420.789V319.17H405.409V350.48H389.48V365.86H123.068V350.48H107.138V319.17H91.2085V256H107.138V224.69H123.068V193.38H169.758V209.309Z" fill="#FF342A"/>
<path d="M342.788 177.999H374.099V193.379H326.859V177.999L326.858 193.38L248.308 193.379V177.999H264.238V162.07H342.788V177.999Z" fill="#FF342A"/>
<path d="M310.929 162.069H279.619V146.689H310.929V162.069Z" fill="#FF342A"/>
<path d="M201.069 209.309H169.759V193.38H201.069V209.309Z" fill="#326526"/>
<path d="M201.07 130.759H232.929V114.829H248.31V130.759H295.549V146.689H279.62V162.069H201.07V146.689L201.069 177.999L201.07 162.069L264.239 162.07V177.999H248.31V193.379H232.929V209.309H201.069L201.07 193.379H123.069V177.999H107.139V162.07H185.689V146.689H169.759V130.759H154.379V114.829H201.07V130.759Z" fill="#326526"/>
<path d="M169.759 162.069H138.449V146.689H169.759V162.069Z" fill="#326526"/>
<path d="M169.76 114.83H154.379V130.76H169.76V114.83Z" fill="#1A3416"/>
<path d="M201.07 114.83H169.76V130.76H201.07V114.83Z" fill="#3E8F28"/>
<path d="M248.31 114.83H232.929V130.76H248.31V114.83Z" fill="#3E782E"/>
<path d="M201.07 130.759H169.76V146.689H201.07V130.759Z" fill="#1A3416"/>
<path d="M216.999 130.759H201.069V146.689H216.999V130.759Z" fill="#3E782E"/>
<path d="M232.93 130.759H217V146.689H232.93V130.759Z" fill="#326526"/>
<path d="M248.31 130.759H232.929V146.689H248.31V130.759Z" fill="#1A3416"/>
<path d="M264.238 130.759H248.308V146.689H264.238V130.759Z" fill="#3E8F28"/>
<path d="M279.621 130.759H264.24V146.689H279.621V130.759Z" fill="#3E782E"/>
<path d="M295.549 130.759H279.62V146.689H295.549V130.759Z" fill="#1A3416"/>
<path d="M154.38 146.689H138.45V162.069H154.38V146.689Z" fill="#1A3416"/>
<path d="M169.76 146.689H154.379V162.069H169.76V146.689Z" fill="#3E8F28"/>
<path d="M201.071 146.689H185.69V177.999H201.071V146.689Z" fill="#326526"/>
<path d="M216.999 146.689H201.069V162.069H216.999V146.689Z" fill="#3E8F28"/>
<path d="M232.93 146.689H217V162.069H232.93V146.689Z" fill="#1A3416"/>
<path d="M248.31 146.689H232.929V162.069H248.31V146.689Z" fill="#3E8F28"/>
<path d="M264.238 146.689H248.308V162.069H264.238V146.689Z" fill="#25521D"/>
<path d="M279.621 146.689H264.24V162.069H279.621V146.689Z" fill="#1A3416"/>
<path d="M123.068 162.07H107.139V178H123.068V162.07Z" fill="#1A3416"/>
<path d="M154.378 162.07H123.068V178H154.378V162.07Z" fill="#3E782E"/>
<path d="M169.76 162.07H154.379V178H169.76V162.07Z" fill="#25521D"/>
<path d="M185.689 162.07H169.76V178H185.689V162.07Z" fill="#3E8F28"/>
<path d="M216.999 162.07H201.069V193.38H216.999V162.07Z" fill="#326526"/>
<path d="M232.93 162.07H217V193.38H232.93V162.07Z" fill="#3E782E"/>
<path d="M248.31 162.07H232.929V178H248.31V162.07Z" fill="#25521D"/>
<path d="M264.238 162.07H248.308V178H264.238V162.07Z" fill="#1A3416"/>
<path d="M169.758 177.999H123.068V193.379H169.758V177.999Z" fill="#1A3416"/>
<path d="M201.07 177.999H169.76V193.379H201.07V177.999Z" fill="#25521D"/>
<path d="M248.31 177.999H232.929V193.379H248.31V177.999Z" fill="#1A3416"/>
<path d="M185.689 193.38H169.76V209.31H185.689V193.38Z" fill="#1A3416"/>
<path d="M201.071 193.38H185.69V209.31H201.071V193.38Z" fill="#326526"/>
<path d="M216.999 193.38H201.069V209.31H216.999V193.38Z" fill="#25521D"/>
<path d="M232.93 193.38H217V209.31H232.93V193.38Z" fill="#326526"/>
<path d="M310.93 146.689H279.62V162.069H310.93V146.689Z" fill="#A73733"/>
<path d="M279.621 162.07H264.24V178H279.621V162.07Z" fill="#FF844D"/>
<path d="M295.549 162.07H279.62V178H295.549V162.07Z" fill="#FDB47E"/>
<path d="M310.928 162.07H295.547V178H310.928V162.07Z" fill="#FD9864"/>
<path d="M342.79 162.07H310.931V178H342.79V162.07Z" fill="#A73733"/>
<path d="M264.238 177.999H248.308V193.379H264.238V177.999Z" fill="#E8231A"/>
<path d="M279.621 177.999H264.24V193.379H279.621V177.999Z" fill="#FF5823"/>
<path d="M295.549 177.999H279.62V193.379H295.549V177.999Z" fill="#FF3B11"/>
<path d="M310.928 177.999H295.547V193.379H310.928V177.999Z" fill="#FBE3A8"/>
<path d="M326.86 177.999H310.931V193.379H326.86V177.999Z" fill="#FDB47E"/>
<path d="M342.79 177.999H326.86V193.379H342.79V177.999Z" fill="#FF844D"/>
<path d="M374.099 177.999H342.789V193.379H374.099V177.999Z" fill="#A73733"/>
<path d="M138.448 193.38H123.068V224.69H138.448V193.38Z" fill="#97211C"/>
<path d="M154.38 193.38H138.45V209.31H154.38V193.38Z" fill="#FD907A"/>
<path d="M169.76 193.38H154.379V209.31H169.76V193.38Z" fill="#FCDA9F"/>
<path d="M248.31 193.38H232.929V209.31H248.31V193.38Z" fill="#FF422A"/>
<path d="M279.618 193.38H248.308V224.69H279.618V193.38Z" fill="#DD2921"/>
<path d="M295.549 193.38H279.62V209.31H295.549V193.38Z" fill="#FF844D"/>
<path d="M310.928 193.38H295.547V209.31H310.928V193.38Z" fill="#FF3B11"/>
<path d="M326.86 193.38H310.931V224.69H326.86V193.38Z" fill="#FD9864"/>
<path d="M342.79 193.38H326.86V209.31H342.79V193.38Z" fill="#FDB47E"/>
<path d="M358.169 193.38H342.789V224.69H358.169V193.38Z" fill="#FD9864"/>
<path d="M374.099 193.38H358.169V209.31H374.099V193.38Z" fill="#FF844D"/>
<path d="M389.481 193.38H374.1V209.31H389.481V193.38Z" fill="#A73733"/>
<path d="M154.38 209.309H138.45V240.619H154.38V209.309Z" fill="#FCDA9F"/>
<path d="M169.76 209.309H154.379V240.619H169.76V209.309Z" fill="#FD907A"/>
<path d="M185.689 209.309H169.76V224.69H185.689V209.309Z" fill="#E8231A"/>
<path d="M217.001 209.309H185.69V224.69H217.001V209.309Z" fill="#FF422A"/>
<path d="M248.31 209.309H217V240.619H248.31V209.309Z" fill="#DD2921"/>
<path d="M310.93 209.309H279.62V224.69H310.93V209.309Z" fill="#FF1F14"/>
<path d="M342.79 209.309H326.86V224.69H342.79V209.309Z" fill="#FCDA9F"/>
<path d="M374.099 209.309H358.169V224.69H374.099V209.309Z" fill="#FF4C23"/>
<path d="M389.481 209.309H374.1V224.69H389.481V209.309Z" fill="#FF844D"/>
<path d="M405.41 209.309H389.48V240.619H405.41V209.309Z" fill="#97211C"/>
<path d="M123.068 224.69H107.139V256H123.068V224.69Z" fill="#97211C"/>
<path d="M138.448 224.69H123.068V256H138.448V224.69Z" fill="#BF3243"/>
<path d="M185.689 224.69H169.76V240.62H185.689V224.69Z" fill="#FF422A"/>
<path d="M201.071 224.69H185.69V240.62H201.071V224.69Z" fill="#E8231A"/>
<path d="M216.999 224.69H201.069V240.62H216.999V224.69Z" fill="#DD2921"/>
<path d="M264.238 224.69H248.308V240.62H264.238V224.69Z" fill="#DD2921"/>
<path d="M279.621 224.69H264.24V240.62H279.621V224.69Z" fill="#FF1F14"/>
<path d="M295.549 224.69H279.62V240.62H295.549V224.69Z" fill="#FF422A"/>
<path d="M310.928 224.69H295.547V256H310.928V224.69Z" fill="#FF844D"/>
<path d="M326.86 224.69H310.931V256H326.86V224.69Z" fill="#FDB47E"/>
<path d="M342.79 224.69H326.86V256H342.79V224.69Z" fill="#FBEBCC"/>
<path d="M358.169 224.69H342.789V240.62H358.169V224.69Z" fill="#FF844D"/>
<path d="M374.099 224.69H358.169V240.62H374.099V224.69Z" fill="#EC3E16"/>
<path d="M389.481 224.69H374.1V240.62H389.481V224.69Z" fill="#FF4C23"/>
<path d="M154.38 240.62H138.45V256.001H154.38V240.62Z" fill="#FD907A"/>
<path d="M169.76 240.62H154.379V256.001H169.76V240.62Z" fill="#FCDFC1"/>
<path d="M185.689 240.62H169.76V256.001H185.689V240.62Z" fill="#FD907A"/>
<path d="M201.071 240.62H185.69V256.001H201.071V240.62Z" fill="#FF785D"/>
<path d="M216.999 240.62H201.069V256.001H216.999V240.62Z" fill="#FF422A"/>
<path d="M232.93 240.62H217V256.001H232.93V240.62Z" fill="#FF1F14"/>
<path d="M248.31 240.62H232.929V256.001H248.31V240.62Z" fill="#E8231A"/>
<path d="M264.238 240.62H248.308V256.001H264.238V240.62Z" fill="#FF1F14"/>
<path d="M279.621 240.62H264.24V256.001H279.621V240.62Z" fill="#FF422A"/>
<path d="M295.549 240.62H279.62V256.001H295.549V240.62Z" fill="#FD907A"/>
<path d="M374.099 240.62H342.789V256.001H374.099V240.62Z" fill="#FF5823"/>
<path d="M389.481 240.62H374.1V256.001H389.481V240.62Z" fill="#EC3E16"/>
<path d="M405.41 240.62H389.48V256.001H405.41V240.62Z" fill="#FF3B11"/>
<path d="M420.79 240.62H405.41V319.17H420.79V240.62Z" fill="#97211C"/>
<path d="M107.138 256H91.2085V319.17H107.138V256Z" fill="#6B1915"/>
<path d="M123.068 256H107.139V319.17H123.068V256Z" fill="#BF3243"/>
<path d="M138.448 256H123.068V303.24H138.448V256Z" fill="#FF422A"/>
<path d="M154.38 256H138.45V271.93H154.38V256Z" fill="#FF785D"/>
<path d="M169.76 256H154.379V271.93H169.76V256Z" fill="#FF422A"/>
<path d="M201.07 256H169.76V271.93H201.07V256Z" fill="#FBEBCC"/>
<path d="M232.929 256H201.069V271.93H232.929V256Z" fill="#FD907A"/>
<path d="M248.31 256H232.929V271.93H248.31V256Z" fill="#FF1F14"/>
<path d="M264.238 256H248.308V271.93H264.238V256Z" fill="#FF342A"/>
<path d="M295.55 256H264.24V271.93H295.55V256Z" fill="#FF844D"/>
<path d="M310.928 256H295.547V271.93H310.928V256Z" fill="#FDB47E"/>
<path d="M326.86 256H310.931V287.859H326.86V256Z" fill="#FBEBCC"/>
<path d="M342.79 256H326.86V271.93H342.79V256Z" fill="#FDB399"/>
<path d="M358.169 256H342.789V271.93H358.169V256Z" fill="#FF844D"/>
<path d="M374.099 256H358.169V271.93H374.099V256Z" fill="#FF5823"/>
<path d="M389.481 256H374.1V271.93H389.481V256Z" fill="#FF4C23"/>
<path d="M405.41 256H389.48V287.859H405.41V256Z" fill="#EC3E16"/>
<path d="M154.38 271.93H138.45V287.86H154.38V271.93Z" fill="#FF422A"/>
<path d="M169.76 271.93H154.379V287.86H169.76V271.93Z" fill="#FF785D"/>
<path d="M185.689 271.93H169.76V287.86H185.689V271.93Z" fill="#FF342A"/>
<path d="M217.001 271.93H185.69V287.86H217.001V271.93Z" fill="#FF785D"/>
<path d="M232.93 271.93H217V287.86H232.93V271.93Z" fill="#FF422A"/>
<path d="M248.31 271.93H232.929V287.86H248.31V271.93Z" fill="#FD907A"/>
<path d="M264.238 271.93H248.308V287.86H264.238V271.93Z" fill="#FD9864"/>
<path d="M295.55 271.93H264.24V287.86H295.55V271.93Z" fill="#FBEBCC"/>
<path d="M310.928 271.93H295.547V287.86H310.928V271.93Z" fill="#FF785D"/>
<path d="M342.79 271.93H326.86V287.86H342.79V271.93Z" fill="#FF785D"/>
<path d="M358.169 271.93H342.789V287.86H358.169V271.93Z" fill="#FF422A"/>
<path d="M374.099 271.93H358.169V287.86H374.099V271.93Z" fill="#FF4C23"/>
<path d="M389.481 271.93H374.1V319.17H389.481V271.93Z" fill="#EC3E16"/>
<path d="M169.76 287.859H138.45V303.239H169.76V287.859Z" fill="#FF342A"/>
<path d="M185.689 287.859H169.76V303.239H185.689V287.859Z" fill="#FF1F14"/>
<path d="M217.001 287.859H185.69V303.239H217.001V287.859Z" fill="#FF342A"/>
<path d="M232.93 287.859H217V303.239H232.93V287.859Z" fill="#FF1F14"/>
<path d="M248.31 287.859H232.929V303.239H248.31V287.859Z" fill="#FF342A"/>
<path d="M279.618 287.859H248.308V303.239H279.618V287.859Z" fill="#FF785D"/>
<path d="M310.93 287.859H279.62V303.239H310.93V287.859Z" fill="#FBEBCC"/>
<path d="M326.86 287.859H310.931V303.239H326.86V287.859Z" fill="#FD907A"/>
<path d="M358.17 287.859H326.86V303.239H358.17V287.859Z" fill="#FF342A"/>
<path d="M374.099 287.859H358.169V303.239H374.099V287.859Z" fill="#EC3E16"/>
<path d="M405.41 287.859H389.48V303.239H405.41V287.859Z" fill="#E8231A"/>
<path d="M138.448 303.24H123.068V319.17H138.448V303.24Z" fill="#E8231A"/>
<path d="M154.38 303.24H138.45V319.17H154.38V303.24Z" fill="#FF1F14"/>
<path d="M169.76 303.24H154.379V319.17H169.76V303.24Z" fill="#E8231A"/>
<path d="M185.689 303.24H169.76V319.17H185.689V303.24Z" fill="#FF342A"/>
<path d="M201.071 303.24H185.69V334.55H201.071V303.24Z" fill="#FF1F14"/>
<path d="M232.929 303.24H201.069V319.17H232.929V303.24Z" fill="#FF342A"/>
<path d="M248.31 303.24H232.929V319.17H248.31V303.24Z" fill="#FF785D"/>
<path d="M264.238 303.24H248.308V319.17H264.238V303.24Z" fill="#FF342A"/>
<path d="M310.931 303.24H264.24V319.17H310.931V303.24Z" fill="#FF785D"/>
<path d="M342.79 303.24H310.931V334.55H342.79V303.24Z" fill="#FF342A"/>
<path d="M358.169 303.24H342.789V319.17H358.169V303.24Z" fill="#E8231A"/>
<path d="M374.099 303.24H358.169V319.17H374.099V303.24Z" fill="#FF3B11"/>
<path d="M405.41 303.24H389.48V319.17H405.41V303.24Z" fill="#FF1F14"/>
<path d="M123.068 319.169H107.139V350.479H123.068V319.169Z" fill="#6B1915"/>
<path d="M138.448 319.169H123.068V350.479H138.448V319.169Z" fill="#BF3243"/>
<path d="M154.38 319.169H138.45V334.549H154.38V319.169Z" fill="#FF422A"/>
<path d="M169.76 319.169H154.379V334.549H169.76V319.169Z" fill="#FF1F14"/>
<path d="M185.689 319.169H169.76V334.549H185.689V319.169Z" fill="#E8231A"/>
<path d="M216.999 319.169H201.069V334.549H216.999V319.169Z" fill="#FF342A"/>
<path d="M232.93 319.169H217V334.549H232.93V319.169Z" fill="#FF1F14"/>
<path d="M248.31 319.169H232.929V334.549H248.31V319.169Z" fill="#FF342A"/>
<path d="M264.238 319.169H248.308V334.549H264.238V319.169Z" fill="#FF785D"/>
<path d="M310.931 319.169H264.24V334.549H310.931V319.169Z" fill="#FF342A"/>
<path d="M358.169 319.169H342.789V334.549H358.169V319.169Z" fill="#FF1F14"/>
<path d="M374.099 319.169H358.169V334.549H374.099V319.169Z" fill="#EC3E16"/>
<path d="M389.481 319.169H374.1V350.479H389.481V319.169Z" fill="#FF1F14"/>
<path d="M405.41 319.169H389.48V350.479H405.41V319.169Z" fill="#6B1915"/>
<path d="M154.38 334.55H138.45V365.86H154.38V334.55Z" fill="#BF3243"/>
<path d="M169.76 334.55H154.379V350.48H169.76V334.55Z" fill="#FF785D"/>
<path d="M185.689 334.55H169.76V350.48H185.689V334.55Z" fill="#FF1F14"/>
<path d="M201.071 334.55H185.69V350.48H201.071V334.55Z" fill="#E8231A"/>
<path d="M216.999 334.55H201.069V350.48H216.999V334.55Z" fill="#FF1F14"/>
<path d="M232.93 334.55H217V350.48H232.93V334.55Z" fill="#FF342A"/>
<path d="M248.31 334.55H232.929V365.86H248.31V334.55Z" fill="#FF1F14"/>
<path d="M264.238 334.55H248.308V350.48H264.238V334.55Z" fill="#FF342A"/>
<path d="M279.621 334.55H264.24V365.86H279.621V334.55Z" fill="#FF1F14"/>
<path d="M310.93 334.55H279.62V350.48H310.93V334.55Z" fill="#FF342A"/>
<path d="M342.79 334.55H310.931V350.48H342.79V334.55Z" fill="#FF1F14"/>
<path d="M358.169 334.55H342.789V365.86H358.169V334.55Z" fill="#EC3E16"/>
<path d="M374.099 334.55H358.169V350.48H374.099V334.55Z" fill="#FF3B11"/>
<path d="M138.448 350.479H123.068V365.86H138.448V350.479Z" fill="#6B1915"/>
<path d="M169.76 350.479H154.379V365.86H169.76V350.479Z" fill="#BF3243"/>
<path d="M185.689 350.479H169.76V365.86H185.689V350.479Z" fill="#FF785D"/>
<path d="M217.001 350.479H185.69V365.86H217.001V350.479Z" fill="#FF422A"/>
<path d="M232.93 350.479H217V365.86H232.93V350.479Z" fill="#FF1F14"/>
<path d="M264.238 350.479H248.308V365.86H264.238V350.479Z" fill="#FF1F14"/>
<path d="M310.93 350.479H279.62V365.86H310.93V350.479Z" fill="#FF1F14"/>
<path d="M342.79 350.479H310.931V365.86H342.79V350.479Z" fill="#E8231A"/>
<path d="M374.099 350.479H358.169V365.86H374.099V350.479Z" fill="#FF1F14"/>
<path d="M389.481 350.479H374.1V365.86H389.481V350.479Z" fill="#6B1915"/>
<path d="M169.76 365.86H138.45V381.79H169.76V365.86Z" fill="#6B1915"/>
<path d="M232.929 365.86H169.76V381.79H232.929V365.86Z" fill="#BF3243"/>
<path d="M279.62 365.86H232.929V381.79H279.62V365.86Z" fill="#E8231A"/>
<path d="M295.549 365.86H279.62V381.79H295.549V365.86Z" fill="#FF1F14"/>
<path d="M310.928 365.86H295.547V381.79H310.928V365.86Z" fill="#E8231A"/>
<path d="M342.79 365.86H310.931V381.79H342.79V365.86Z" fill="#FF1F14"/>
<path d="M374.099 365.86H342.789V381.79H374.099V365.86Z" fill="#6B1915"/>
<path d="M342.79 381.79H169.76V397.171H342.79V381.79Z" fill="#6B1915"/>
</svg>
