<svg xmlns="http://www.w3.org/2000/svg" width="30" height="30" viewBox="0 0 30 30" fill="none">
    <path
        d="M27.3012 21.5611C27.3012 21.9287 27.1552 22.2811 26.8953 22.541C26.6354 22.8009 26.2829 22.9469 25.9154 22.9469C25.5478 22.9469 25.1954 22.8009 24.9355 22.541C24.6756 22.2811 24.5296 21.9287 24.5296 21.5611C24.5297 19.6424 23.9608 17.7668 22.8949 16.1714C21.829 14.576 20.3139 13.3325 18.5413 12.5982C16.7687 11.864 14.8181 11.6719 12.9362 12.0462C11.0544 12.4206 9.32586 13.3446 7.9692 14.7014L6.18036 16.4798H10.2096C10.5771 16.4798 10.9296 16.6258 11.1895 16.8857C11.4494 17.1456 11.5954 17.4981 11.5954 17.8656C11.5954 18.2332 11.4494 18.5857 11.1895 18.8456C10.9296 19.1054 10.5771 19.2515 10.2096 19.2515H2.81863C2.45109 19.2515 2.0986 19.1054 1.83872 18.8456C1.57883 18.5857 1.43282 18.2332 1.43282 17.8656V10.4747C1.43282 10.1071 1.57883 9.75466 1.83872 9.49478C2.0986 9.23489 2.45109 9.08888 2.81863 9.08888C3.18617 9.08888 3.53865 9.23489 3.79854 9.49478C4.05843 9.75466 4.20443 10.1071 4.20443 10.4747V14.5351L6.01291 12.7393C7.7575 10.996 9.97981 9.80902 12.3989 9.32849C14.818 8.84795 17.3252 9.09542 19.6037 10.0396C21.8821 10.9838 23.8295 12.5823 25.1996 14.6331C26.5697 16.6838 27.3011 19.0948 27.3012 21.5611Z"
        fill="white" />
</svg>