<svg xmlns="http://www.w3.org/2000/svg" width="31" height="30" viewBox="0 0 31 30" fill="none">
    <path
        d="M28.663 10.4747V17.8657C28.663 18.2332 28.517 18.5857 28.2571 18.8456C27.9972 19.1055 27.6448 19.2515 27.2772 19.2515H19.8863C19.5187 19.2515 19.1662 19.1055 18.9064 18.8456C18.6465 18.5857 18.5005 18.2332 18.5005 17.8657C18.5005 17.4981 18.6465 17.1456 18.9064 16.8857C19.1662 16.6259 19.5187 16.4799 19.8863 16.4799H23.9167L22.129 14.7049C20.7726 13.3475 19.0442 12.4228 17.1623 12.0479C15.2804 11.673 13.3296 11.8646 11.5566 12.5986C9.78362 13.3325 8.26814 14.5758 7.20185 16.1711C6.13556 17.7665 5.56638 19.6422 5.56629 21.5611C5.56629 21.9287 5.42028 22.2812 5.16039 22.541C4.90051 22.8009 4.54802 22.9469 4.18048 22.9469C3.81294 22.9469 3.46046 22.8009 3.20057 22.541C2.94068 22.2812 2.79468 21.9287 2.79468 21.5611C2.79457 19.0943 3.52599 16.6828 4.89645 14.6316C6.26691 12.5805 8.21485 10.9818 10.4939 10.0377C12.773 9.09371 15.2808 8.84671 17.7003 9.32801C20.1197 9.8093 22.3421 10.9973 24.0864 12.7416L25.8914 14.5351V10.4747C25.8914 10.1072 26.0374 9.75467 26.2973 9.49479C26.5572 9.2349 26.9097 9.08889 27.2772 9.08889C27.6448 9.08889 27.9972 9.2349 28.2571 9.49479C28.517 9.75467 28.663 10.1072 28.663 10.4747Z"
        fill="white" />
</svg>