<svg xmlns="http://www.w3.org/2000/svg" width="21" height="23" viewBox="0 0 21 23" fill="none">
    <path
        d="M20.7105 1.85534V20.3327C20.7105 20.8228 20.5158 21.2928 20.1693 21.6393C19.8228 21.9858 19.3528 22.1805 18.8628 22.1805H14.2434C13.7534 22.1805 13.2834 21.9858 12.9369 21.6393C12.5903 21.2928 12.3957 20.8228 12.3957 20.3327V1.85534C12.3957 1.36529 12.5903 0.895308 12.9369 0.548789C13.2834 0.202271 13.7534 0.00759888 14.2434 0.00759888H18.8628C19.3528 0.00759888 19.8228 0.202271 20.1693 0.548789C20.5158 0.895308 20.7105 1.36529 20.7105 1.85534ZM6.85245 0.00759888H2.2331C1.74305 0.00759888 1.27307 0.202271 0.926551 0.548789C0.580033 0.895308 0.385361 1.36529 0.385361 1.85534V20.3327C0.385361 20.8228 0.580033 21.2928 0.926551 21.6393C1.27307 21.9858 1.74305 22.1805 2.2331 22.1805H6.85245C7.3425 22.1805 7.81248 21.9858 8.159 21.6393C8.50552 21.2928 8.70019 20.8228 8.70019 20.3327V1.85534C8.70019 1.36529 8.50552 0.895308 8.159 0.548789C7.81248 0.202271 7.3425 0.00759888 6.85245 0.00759888Z"
        fill="white" />
</svg>