<svg xmlns="http://www.w3.org/2000/svg" width="30" height="30" viewBox="0 0 30 30" fill="none">
    <path
        d="M26.6583 15.094C26.6586 18.1302 25.4632 21.0444 23.3308 23.2057C21.1984 25.3671 18.3006 26.6017 15.2647 26.6424H15.1099C12.1617 26.6486 9.32417 25.5201 7.18546 23.4909C6.91822 23.2385 6.76219 22.8903 6.75169 22.5229C6.74119 22.1555 6.87707 21.7989 7.12945 21.5317C7.38182 21.2644 7.73002 21.1084 8.09744 21.0979C8.46485 21.0874 8.8214 21.2233 9.08863 21.4757C10.3431 22.66 11.9187 23.4483 13.6186 23.7422C15.3186 24.0361 17.0674 23.8225 18.6466 23.128C20.2259 22.4336 21.5654 21.2892 22.4979 19.8378C23.4304 18.3863 23.9145 16.6923 23.8896 14.9673C23.8648 13.2423 23.3321 11.5629 22.3582 10.139C21.3843 8.715 20.0124 7.60963 18.4138 6.96098C16.8152 6.31233 15.0609 6.14917 13.3702 6.49189C11.6794 6.83461 10.1271 7.66801 8.90732 8.88794C8.89231 8.90296 8.87845 8.91681 8.86228 8.93067L6.66693 10.9366H8.64286C9.0104 10.9366 9.36288 11.0826 9.62277 11.3425C9.88266 11.6024 10.0287 11.9549 10.0287 12.3224C10.0287 12.69 9.88266 13.0425 9.62277 13.3023C9.36288 13.5622 9.0104 13.7082 8.64286 13.7082H3.09964C2.7321 13.7082 2.37962 13.5622 2.11973 13.3023C1.85984 13.0425 1.71384 12.69 1.71384 12.3224V6.77921C1.71384 6.41167 1.85984 6.05919 2.11973 5.7993C2.37962 5.53941 2.7321 5.39341 3.09964 5.39341C3.46718 5.39341 3.81966 5.53941 4.07955 5.7993C4.33944 6.05919 4.48545 6.41167 4.48545 6.77921V9.17203L6.96604 6.90162C8.58384 5.29251 10.6421 4.19871 12.881 3.7583C15.1198 3.31788 17.439 3.55059 19.5458 4.42704C21.6525 5.30349 23.4524 6.78441 24.7183 8.68287C25.9841 10.5813 26.6592 12.8122 26.6583 15.094Z"
        fill="white" />
</svg>